<?xml version="1.0" encoding="utf-8"?>
<!-- Generator: Adobe Illustrator 25.0.1, SVG Export Plug-In . SVG Version: 6.00 Build 0)  -->
<svg version="1.1" id="Layer_1" xmlns="http://www.w3.org/2000/svg" xmlns:xlink="http://www.w3.org/1999/xlink" x="0px" y="0px"
	 viewBox="0 0 1280 1024" style="enable-background:new 0 0 1280 1024;" xml:space="preserve">
<g id="bottombump">
	<path d="M821.7,693.2c37.6-18.7,56.5-54.4,56.5-107.3c0-44.7-18.3-75.4-54.8-92.1c-20.4-9.3-31.5-12-68.4-12.4H543.4v229.2h208.7
		C789.4,710.6,800.9,703.4,821.7,693.2z"/>
</g>
<g id="Topbump">
	<path d="M843.3,317.7c23.3-14.2,34.9-39.4,34.9-75.5c0-40-15.4-66.5-46.2-79.3c-26.6-8.9-60.4-13.4-101.6-13.4h-187V339h209
		C789.7,339,820,331.9,843.3,317.7z"/>
</g>
<g id="Lshape">
	<path d="M977.9,805.1c-27.5,21-59.8,35.4-97.1,43.2c-37.3,7.8-77.8,11.7-121.5,11.7H371.9V0.1L186.4,164.3l0.7,859.7h608.3
		C795.3,1024,1002.3,786.8,977.9,805.1z"/>
</g>
<g id="sparkle">
	<path d="M1053.6,243.9c0,74.7,60.6,135.3,135.3,135.3c-74.7,0-135.3,60.6-135.3,135.3c0-74.7-60.6-135.3-135.3-135.3
		C993,379.2,1053.6,318.6,1053.6,243.9L1053.6,243.9z"/>
</g>
</svg>
