<?xml version="1.0" encoding="utf-8"?>
<!-- Generator: Adobe Illustrator 25.0.1, SVG Export Plug-In . SVG Version: 6.00 Build 0)  -->
<svg version="1.1" id="Layer_1" xmlns="http://www.w3.org/2000/svg" xmlns:xlink="http://www.w3.org/1999/xlink" x="0px" y="0px"
	 viewBox="0 0 1280 1024" style="enable-background:new 0 0 1280 1024;" xml:space="preserve">
<g id="bottombump">
	<path d="M819.6,688.4c36.8-18.3,55.3-53.2,55.3-105c0-43.7-17.9-73.8-53.6-90.1c-19.9-9.1-30.8-11.8-66.9-12.1h-207v224.2h204.2
		C788,705.4,799.3,698.3,819.6,688.4z"/>
</g>
<g id="Topbump">
	<path d="M840.7,321.1c22.8-13.9,34.1-38.5,34.1-73.9c0-39.2-15.1-65-45.2-77.6c-26-8.8-59.1-13.1-99.4-13.1H547.4v185.4h204.4
		C788.3,342,817.9,335,840.7,321.1z"/>
</g>
<g id="Lshape">
	<path d="M972.4,797.8c-26.9,20.5-58.5,34.6-95,42.2c-36.5,7.6-76.1,11.4-118.8,11.4H379.6v-841L198.2,171l0.6,841h595
		C793.8,1012,996.2,779.9,972.4,797.8z"/>
</g>
<g id="sparkle">
	<path d="M1046.5,248.8c0,73.1,59.3,132.4,132.4,132.4c-73.1,0-132.4,59.3-132.4,132.4c0-73.1-59.3-132.4-132.4-132.4
		C987.2,381.2,1046.5,322,1046.5,248.8L1046.5,248.8z"/>
</g>
</svg>
