<?xml version="1.0" encoding="utf-8"?>
<!-- Generator: Adobe Illustrator 25.0.1, SVG Export Plug-In . SVG Version: 6.00 Build 0)  -->
<svg version="1.1" xmlns="http://www.w3.org/2000/svg" xmlns:xlink="http://www.w3.org/1999/xlink" x="0px" y="0px"
	 viewBox="0 0 1280 1024" style="enable-background:new 0 0 1280 1024;" xml:space="preserve">
<style type="text/css">
	.st0{display:none;}
	.st1{display:inline;}
	.st2{fill:url(#SVGID_1_);}
</style>
<g id="Layer_1" class="st0">
	<circle class="st1" cx="843" cy="456.2" r="57.7"/>
	<g class="st1">
		<path class="st0" d="M841.3,389.6c0,22.4-5.7,40.4-17,54c-6.3,7.6-15.7,14.6-28,20.9c18.7,6.8,22.5,9.1,27.6,15.1
			c14.9,17.4,17.3,36.8,17.3,50.1C841.3,523.5,841.3,367.8,841.3,389.6z"/>
		<path d="M810.7,638c-11.7,9-25.5,15.1-41.5,18.4c-15.9,3.3-33.2,5-51.9,5H552v-367l-79.2,70l0.3,367h259.6
			C732.7,731.5,821.1,630.2,810.7,638z"/>
		<path d="M753.2,430c9.9-6.1,14.9-16.8,14.9-32.2c0-17.1-6.6-28.4-19.7-33.9c-11.3-3.8-25.8-5.7-43.4-5.7h-79.8v80.9h89.2
			C730.3,439.1,743.3,436.1,753.2,430z"/>
		<path d="M744,590.3c16.1-8,24.1-23.2,24.1-45.8c0-19.1-7.8-32.2-23.4-39.3c-8.7-4-13.5-5.1-29.2-5.3h-90.3v97.8h89.1
			C730.2,597.7,735.1,594.6,744,590.3z"/>
	</g>
</g>
<g id="Layer_2">
	<linearGradient id="SVGID_1_" gradientUnits="userSpaceOnUse" x1="640" y1="1024" x2="640" y2="-9.094947e-13">
		<stop  offset="0" style="stop-color:#99CC99"/>
		<stop  offset="0.5183" style="stop-color:#C5D3E5"/>
		<stop  offset="1" style="stop-color:#CC99CC"/>
	</linearGradient>
	<rect class="st2" width="1280" height="1024"/>
</g>
</svg>
