<?xml version="1.0" encoding="utf-8"?>
<!-- Generator: Adobe Illustrator 25.0.1, SVG Export Plug-In . SVG Version: 6.00 Build 0)  -->
<svg version="1.1" id="Layer_1" xmlns="http://www.w3.org/2000/svg" xmlns:xlink="http://www.w3.org/1999/xlink" x="0px" y="0px"
	 viewBox="0 0 1280 1024" style="enable-background:new 0 0 1280 1024;" xml:space="preserve">
<style type="text/css">
	.st0{fill:#CC99CC;}
	.st1{fill:#C5D3E5;}
	.st2{fill:#99CC99;}
</style>
<g>
	<path class="st0" d="M1224,731.8V939c0,16.6-13.4,30-30,30H80c-16.6,0-30-13.4-30-30V731.8c0-16.6,13.4-30,30-30h1114
		C1210.6,701.8,1224,715.3,1224,731.8z"/>
</g>
<g>
	<path class="st1" d="M1224,410.9v207.2c0,16.6-13.4,30-30,30H80c-16.6,0-30-13.4-30-30V410.9c0-16.6,13.4-30,30-30h1114
		C1210.6,380.9,1224,394.3,1224,410.9z"/>
</g>
<g>
	<path class="st2" d="M1224,90v207.2c0,16.6-13.4,30-30,30H80c-16.6,0-30-13.4-30-30V90c0-16.6,13.4-30,30-30h1114
		C1210.6,60,1224,73.4,1224,90z"/>
</g>
</svg>
